<svg xmlns="http://www.w3.org/2000/svg" viewBox="0 0 512 512" width="512" height="512" role="img" aria-label="BRIDGE OS">
  <defs>
    <linearGradient id="bg" x1="0" y1="0" x2="0" y2="1">
      <stop offset="0" stop-color="#0c162a"/>
      <stop offset="1" stop-color="#050914"/>
    </linearGradient>
    <radialGradient id="glow" cx="0.5" cy="0.5" r="0.5">
      <stop offset="0" stop-color="#34d3ee" stop-opacity="0.18"/>
      <stop offset="1" stop-color="#34d3ee" stop-opacity="0"/>
    </radialGradient>
  </defs>
  <rect width="512" height="512" rx="112" fill="url(#bg)"/>
  <circle cx="256" cy="256" r="190" fill="url(#glow)"/>
  <circle cx="256" cy="256" r="172" fill="none" stroke="#34d3ee" stroke-opacity="0.6" stroke-width="5"/>
  <circle cx="256" cy="256" r="138" fill="none" stroke="#34d3ee" stroke-opacity="0.28" stroke-width="3"/>
  <g stroke="#34d3ee" stroke-width="4">
    <line x1="256" y1="84" x2="256" y2="104" stroke-opacity="0.85"/>
    <line x1="256" y1="408" x2="256" y2="428" stroke-opacity="0.85"/>
    <line x1="84" y1="256" x2="104" y2="256" stroke-opacity="0.85"/>
    <line x1="408" y1="256" x2="428" y2="256" stroke-opacity="0.85"/>
  </g>
  <!-- diagonal dim star -->
  <polygon points="256,150 286,256 256,362 226,256" transform="rotate(45 256 256)" fill="#1496af" fill-opacity="0.6"/>
  <!-- main star -->
  <polygon points="256,98 284,256 256,414 228,256" fill="#34d3ee"/>
  <polygon points="98,256 256,228 414,256 256,284" fill="#34d3ee"/>
  <!-- north highlight -->
  <polygon points="256,98 282,256 230,256" fill="#bef6ff"/>
  <circle cx="256" cy="256" r="26" fill="#040812" stroke="#34d3ee" stroke-width="5"/>
  <circle cx="256" cy="256" r="9" fill="#f7b733"/>
</svg>
